<svg viewBox="0 0 945.6000366210938 400" xmlns="http://www.w3.org/2000/svg"><g><g><g><g><g><line x1="53.125" y1="377" x2="48.125" y2="377" style="visibility: inherit;" fill="rgb(0, 0, 0)" stroke="rgb(204, 204, 204)" stroke-width="1px"></line><line x1="53.125" y1="348" x2="48.125" y2="348" style="visibility: inherit;" fill="rgb(0, 0, 0)" stroke="rgb(204, 204, 204)" stroke-width="1px"></line><line x1="53.125" y1="319" x2="48.125" y2="319" style="visibility: inherit;" fill="rgb(0, 0, 0)" stroke="rgb(204, 204, 204)" stroke-width="1px"></line><line x1="53.125" y1="290" x2="48.125" y2="290" style="visibility: inherit;" fill="rgb(0, 0, 0)" stroke="rgb(204, 204, 204)" stroke-width="1px"></line><line x1="53.125" y1="261" x2="48.125" y2="261" style="visibility: inherit;" fill="rgb(0, 0, 0)" stroke="rgb(204, 204, 204)" stroke-width="1px"></line><line x1="53.125" y1="232" x2="48.125" y2="232" style="visibility: inherit;" fill="rgb(0, 0, 0)" stroke="rgb(204, 204, 204)" stroke-width="1px"></line><line x1="53.125" y1="203" x2="48.125" y2="203" style="visibility: inherit;" fill="rgb(0, 0, 0)" stroke="rgb(204, 204, 204)" stroke-width="1px"></line><line x1="53.125" y1="174" x2="48.125" y2="174" style="visibility: inherit;" fill="rgb(0, 0, 0)" stroke="rgb(204, 204, 204)" stroke-width="1px"></line><line x1="53.125" y1="145.00000000000003" x2="48.125" y2="145.00000000000003" style="visibility: inherit;" fill="rgb(0, 0, 0)" stroke="rgb(204, 204, 204)" stroke-width="1px"></line><line x1="53.125" y1="116" x2="48.125" y2="116" style="visibility: inherit;" fill="rgb(0, 0, 0)" stroke="rgb(204, 204, 204)" stroke-width="1px"></line><line x1="53.125" y1="87" x2="48.125" y2="87" style="visibility: inherit;" fill="rgb(0, 0, 0)" stroke="rgb(204, 204, 204)" stroke-width="1px"></line><line x1="53.125" y1="58" x2="48.125" y2="58" style="visibility: inherit;" fill="rgb(0, 0, 0)" stroke="rgb(204, 204, 204)" stroke-width="1px"></line><line x1="53.125" y1="29" x2="48.125" y2="29" style="visibility: inherit;" fill="rgb(0, 0, 0)" stroke="rgb(204, 204, 204)" stroke-width="1px"></line><line x1="53.125" y1="0" x2="48.125" y2="0" style="visibility: inherit;" fill="rgb(0, 0, 0)" stroke="rgb(204, 204, 204)" stroke-width="1px"></line></g><g transform="translate(43.125, 0)"><text x="0" y="377" dx="0em" dy="0.3em" style="text-anchor: end; visibility: hidden; font-family: &quot;Helvetica Neue&quot;, sans-serif; font-size: 12px; font-weight: 200;" fill="rgb(50, 49, 63)" stroke="none" stroke-width="1px">-0.1</text><text x="0" y="348" dx="0em" dy="0.3em" style="text-anchor: end; visibility: inherit; font-family: &quot;Helvetica Neue&quot;, sans-serif; font-size: 12px; font-weight: 200;" fill="rgb(50, 49, 63)" stroke="none" stroke-width="1px">0</text><text x="0" y="319" dx="0em" dy="0.3em" style="text-anchor: end; visibility: inherit; font-family: &quot;Helvetica Neue&quot;, sans-serif; font-size: 12px; font-weight: 200;" fill="rgb(50, 49, 63)" stroke="none" stroke-width="1px">0.1</text><text x="0" y="290" dx="0em" dy="0.3em" style="text-anchor: end; visibility: inherit; font-family: &quot;Helvetica Neue&quot;, sans-serif; font-size: 12px; font-weight: 200;" fill="rgb(50, 49, 63)" stroke="none" stroke-width="1px">0.2</text><text x="0" y="261" dx="0em" dy="0.3em" style="text-anchor: end; visibility: inherit; font-family: &quot;Helvetica Neue&quot;, sans-serif; font-size: 12px; font-weight: 200;" fill="rgb(50, 49, 63)" stroke="none" stroke-width="1px">0.3</text><text x="0" y="232" dx="0em" dy="0.3em" style="text-anchor: end; visibility: inherit; font-family: &quot;Helvetica Neue&quot;, sans-serif; font-size: 12px; font-weight: 200;" fill="rgb(50, 49, 63)" stroke="none" stroke-width="1px">0.4</text><text x="0" y="203" dx="0em" dy="0.3em" style="text-anchor: end; visibility: inherit; font-family: &quot;Helvetica Neue&quot;, sans-serif; font-size: 12px; font-weight: 200;" fill="rgb(50, 49, 63)" stroke="none" stroke-width="1px">0.5</text><text x="0" y="174" dx="0em" dy="0.3em" style="text-anchor: end; visibility: inherit; font-family: &quot;Helvetica Neue&quot;, sans-serif; font-size: 12px; font-weight: 200;" fill="rgb(50, 49, 63)" stroke="none" stroke-width="1px">0.6</text><text x="0" y="145.00000000000003" dx="0em" dy="0.3em" style="text-anchor: end; visibility: inherit; font-family: &quot;Helvetica Neue&quot;, sans-serif; font-size: 12px; font-weight: 200;" fill="rgb(50, 49, 63)" stroke="none" stroke-width="1px">0.7</text><text x="0" y="116" dx="0em" dy="0.3em" style="text-anchor: end; visibility: inherit; font-family: &quot;Helvetica Neue&quot;, sans-serif; font-size: 12px; font-weight: 200;" fill="rgb(50, 49, 63)" stroke="none" stroke-width="1px">0.8</text><text x="0" y="87" dx="0em" dy="0.3em" style="text-anchor: end; visibility: inherit; font-family: &quot;Helvetica Neue&quot;, sans-serif; font-size: 12px; font-weight: 200;" fill="rgb(50, 49, 63)" stroke="none" stroke-width="1px">0.9</text><text x="0" y="58" dx="0em" dy="0.3em" style="text-anchor: end; visibility: inherit; font-family: &quot;Helvetica Neue&quot;, sans-serif; font-size: 12px; font-weight: 200;" fill="rgb(50, 49, 63)" stroke="none" stroke-width="1px">1</text><text x="0" y="29" dx="0em" dy="0.3em" style="text-anchor: end; visibility: inherit; font-family: &quot;Helvetica Neue&quot;, sans-serif; font-size: 12px; font-weight: 200;" fill="rgb(50, 49, 63)" stroke="none" stroke-width="1px">1.1</text><text x="0" y="0" dx="0em" dy="0.3em" style="text-anchor: end; visibility: hidden; font-family: &quot;Helvetica Neue&quot;, sans-serif; font-size: 12px; font-weight: 200;" fill="rgb(50, 49, 63)" stroke="none" stroke-width="1px">1.2</text></g><line x1="53.125" y1="0" x2="53.125" y2="377" fill="rgb(0, 0, 0)" stroke="rgb(204, 204, 204)" stroke-width="1px"></line></g></g><g transform="translate(53, 0)" clip-path="url(#clip_0)"><clipPath id="clip_0"><rect width="892" height="377"></rect></clipPath><g><g><g><line x1="0" y1="0" x2="0" y2="377" fill="rgb(0, 0, 0)" stroke="rgb(60, 60, 60)" stroke-width="1px" opacity="0.25"></line><line x1="63.74821428571428" y1="0" x2="63.74821428571428" y2="377" fill="rgb(0, 0, 0)" stroke="rgb(60, 60, 60)" stroke-width="1px" opacity="0.25"></line><line x1="127.49642857142857" y1="0" x2="127.49642857142857" y2="377" fill="rgb(0, 0, 0)" stroke="rgb(60, 60, 60)" stroke-width="1px" opacity="0.25"></line><line x1="191.24464285714285" y1="0" x2="191.24464285714285" y2="377" fill="rgb(0, 0, 0)" stroke="rgb(60, 60, 60)" stroke-width="1px" opacity="0.25"></line><line x1="254.99285714285713" y1="0" x2="254.99285714285713" y2="377" fill="rgb(0, 0, 0)" stroke="rgb(60, 60, 60)" stroke-width="1px" opacity="0.25"></line><line x1="318.74107142857144" y1="0" x2="318.74107142857144" y2="377" fill="rgb(0, 0, 0)" stroke="rgb(60, 60, 60)" stroke-width="1px" opacity="0.25"></line><line x1="382.4892857142857" y1="0" x2="382.4892857142857" y2="377" fill="rgb(0, 0, 0)" stroke="rgb(60, 60, 60)" stroke-width="1px" opacity="0.25"></line><line x1="446.2375" y1="0" x2="446.2375" y2="377" fill="rgb(0, 0, 0)" stroke="rgb(60, 60, 60)" stroke-width="1px" opacity="0.25"></line><line x1="509.98571428571427" y1="0" x2="509.98571428571427" y2="377" fill="rgb(0, 0, 0)" stroke="rgb(60, 60, 60)" stroke-width="1px" opacity="0.25"></line><line x1="573.7339285714286" y1="0" x2="573.7339285714286" y2="377" fill="rgb(0, 0, 0)" stroke="rgb(60, 60, 60)" stroke-width="1px" opacity="0.25"></line><line x1="637.4821428571429" y1="0" x2="637.4821428571429" y2="377" fill="rgb(0, 0, 0)" stroke="rgb(60, 60, 60)" stroke-width="1px" opacity="0.25"></line><line x1="701.2303571428572" y1="0" x2="701.2303571428572" y2="377" fill="rgb(0, 0, 0)" stroke="rgb(60, 60, 60)" stroke-width="1px" opacity="0.25"></line><line x1="764.9785714285714" y1="0" x2="764.9785714285714" y2="377" fill="rgb(0, 0, 0)" stroke="rgb(60, 60, 60)" stroke-width="1px" opacity="0.25"></line><line x1="828.7267857142857" y1="0" x2="828.7267857142857" y2="377" fill="rgb(0, 0, 0)" stroke="rgb(60, 60, 60)" stroke-width="1px" opacity="0.25"></line><line x1="892.475" y1="0" x2="892.475" y2="377" fill="rgb(0, 0, 0)" stroke="rgb(60, 60, 60)" stroke-width="1px" opacity="0.25"></line></g><g><line x1="0" y1="377" x2="892.475" y2="377" fill="rgb(0, 0, 0)" stroke="rgb(60, 60, 60)" stroke-width="1px" opacity="0.25"></line><line x1="0" y1="348" x2="892.475" y2="348" fill="rgb(0, 0, 0)" stroke="rgb(60, 60, 60)" stroke-width="1px" opacity="0.25"></line><line x1="0" y1="319" x2="892.475" y2="319" fill="rgb(0, 0, 0)" stroke="rgb(60, 60, 60)" stroke-width="1px" opacity="0.25"></line><line x1="0" y1="290" x2="892.475" y2="290" fill="rgb(0, 0, 0)" stroke="rgb(60, 60, 60)" stroke-width="1px" opacity="0.25"></line><line x1="0" y1="261" x2="892.475" y2="261" fill="rgb(0, 0, 0)" stroke="rgb(60, 60, 60)" stroke-width="1px" opacity="0.25"></line><line x1="0" y1="232" x2="892.475" y2="232" fill="rgb(0, 0, 0)" stroke="rgb(60, 60, 60)" stroke-width="1px" opacity="0.25"></line><line x1="0" y1="203" x2="892.475" y2="203" fill="rgb(0, 0, 0)" stroke="rgb(60, 60, 60)" stroke-width="1px" opacity="0.25"></line><line x1="0" y1="174" x2="892.475" y2="174" fill="rgb(0, 0, 0)" stroke="rgb(60, 60, 60)" stroke-width="1px" opacity="0.25"></line><line x1="0" y1="145.00000000000003" x2="892.475" y2="145.00000000000003" fill="rgb(0, 0, 0)" stroke="rgb(60, 60, 60)" stroke-width="1px" opacity="0.25"></line><line x1="0" y1="116" x2="892.475" y2="116" fill="rgb(0, 0, 0)" stroke="rgb(60, 60, 60)" stroke-width="1px" opacity="0.25"></line><line x1="0" y1="87" x2="892.475" y2="87" fill="rgb(0, 0, 0)" stroke="rgb(60, 60, 60)" stroke-width="1px" opacity="0.25"></line><line x1="0" y1="58" x2="892.475" y2="58" fill="rgb(0, 0, 0)" stroke="rgb(60, 60, 60)" stroke-width="1px" opacity="0.25"></line><line x1="0" y1="29" x2="892.475" y2="29" fill="rgb(0, 0, 0)" stroke="rgb(60, 60, 60)" stroke-width="1px" opacity="0.25"></line><line x1="0" y1="0" x2="892.475" y2="0" fill="rgb(0, 0, 0)" stroke="rgb(60, 60, 60)" stroke-width="1px" opacity="0.25"></line></g></g></g><g><g><line x1="0" y1="348" x2="892.475" y2="348" fill="rgb(0, 0, 0)" stroke="rgb(153, 153, 153)" stroke-width="1.5px"></line></g></g><g><g><line x1="63.74821428571428" y1="0" x2="63.74821428571428" y2="377" fill="rgb(0, 0, 0)" stroke="rgb(153, 153, 153)" stroke-width="1.5px"></line></g></g><g><g><g><g><g><path stroke="rgb(51, 187, 238)" stroke-width="2px" d="M63.74821428571428,348L70.12303571428572,348L76.49785714285714,348L82.87267857142858,348L89.2475,348L95.62232142857142,348L101.99714285714286,348L108.37196428571428,348L114.7467857142857,348L121.12160714285713,348L127.49642857142857,348L133.87125,348L140.24607142857144,348L146.62089285714285,348L152.99571428571429,348L159.37053571428572,348L165.74535714285716,348L172.1201785714286,348L178.495,348L184.86982142857144,348L191.24464285714285,348L197.6194642857143,348L203.99428571428572,348L210.36910714285713,348L216.74392857142857,348L223.11875,348L229.4935714285714,348L235.86839285714288,348L242.24321428571426,348L248.61803571428572,348L254.99285714285713,348L261.3676785714286,348L267.7425,348L274.1173214285715,348L280.4921428571429,348L286.8669642857143,348L293.2417857142857,348L299.6166071428571,348L305.99142857142857,348L312.36625,348L318.74107142857144,348L325.11589285714285,348L331.4907142857143,348L337.8655357142857,348L344.2403571428572,348L350.6151785714286,348L356.99,348L363.3648214285714,348L369.7396428571429,348L376.1144642857143,348L382.4892857142857,348L388.86410714285716,348L395.2389285714286,348L401.61375000000004,348L407.98857142857145,348L414.36339285714286,348L420.73821428571426,348L427.11303571428573,348L433.48785714285714,348L439.8626785714286,348L446.2375,348L452.6123214285714,348L458.9871428571428,348L465.36196428571435,348L471.73678571428576,348L478.11160714285717,348L484.4864285714285,348L490.86125000000004,348L497.23607142857145,348L503.61089285714286,348L509.98571428571427,348L516.3605357142858,348L522.7353571428572,348L529.1101785714286,348L535.485,348L541.8598214285714,348L548.234642857143,348L554.6094642857144,348L560.9842857142858,348L567.3591071428572,348L573.7339285714286,348L580.10875,348L586.4835714285714,348L592.8583928571428,348L599.2332142857142,348L605.6080357142857,348L611.9828571428571,348L618.3576785714286,348L624.7325,348L631.1073214285715,348L637.4821428571429,348L643.8569642857143,348L650.2317857142857,348L656.6066071428572,348L662.9814285714286,348L669.35625,348L675.7310714285715,348L682.1058928571429,348L688.4807142857144,348L694.8555357142858,348L701.2303571428572,348L707.6051785714285,348L713.98,348L720.3548214285714,348L726.7296428571428,348L733.1044642857142,348L739.4792857142858,348L745.8541071428572,348L752.2289285714286,348L758.60375,348L764.9785714285714,348L771.3533928571429,348L777.7282142857143,348L784.1030357142857,348L790.4778571428571,348L796.8526785714287,348L803.2275000000001,348L809.6023214285715,348L815.9771428571429,348L822.3519642857143,348L828.7267857142857,348" style="fill: none;" fill="none"></path></g><g><path stroke="rgb(204, 51, 17)" stroke-width="2px" d="M63.74821428571428,348L70.12303571428572,348L76.49785714285714,318.9999995678663L82.87267857142858,314.1666665226221L89.2475,289.99999913573265L95.62232142857142,77.33333218097687L101.99714285714286,323.83333261311054L108.37196428571428,186.08333218097687L114.7467857142857,60.41666436195368L121.12160714285713,58L127.49642857142857,58L133.87125,58L140.24607142857144,58L146.62089285714285,58L152.99571428571429,58L159.37053571428572,58L165.74535714285716,58L172.1201785714286,58L178.495,58L184.86982142857144,58L191.24464285714285,58L197.6194642857143,58L203.99428571428572,58L210.36910714285713,58L216.74392857142857,58L223.11875,58L229.4935714285714,58L235.86839285714288,58L242.24321428571426,58L248.61803571428572,58L254.99285714285713,58L261.3676785714286,58L267.7425,58L274.1173214285715,58L280.4921428571429,58L286.8669642857143,58L293.2417857142857,58L299.6166071428571,58L305.99142857142857,58L312.36625,58L318.74107142857144,58L325.11589285714285,58L331.4907142857143,58L337.8655357142857,58L344.2403571428572,58L350.6151785714286,58L356.99,58L363.3648214285714,58L369.7396428571429,58L376.1144642857143,58L382.4892857142857,58L388.86410714285716,58L395.2389285714286,58L401.61375000000004,58L407.98857142857145,58L414.36339285714286,58L420.73821428571426,58L427.11303571428573,58L433.48785714285714,58L439.8626785714286,58L446.2375,58L452.6123214285714,58L458.9871428571428,58L465.36196428571435,58L471.73678571428576,58L478.11160714285717,58L484.4864285714285,58L490.86125000000004,58L497.23607142857145,58L503.61089285714286,58L509.98571428571427,58L516.3605357142858,58L522.7353571428572,58L529.1101785714286,58L535.485,58L541.8598214285714,58L548.234642857143,58L554.6094642857144,58L560.9842857142858,58L567.3591071428572,58L573.7339285714286,58L580.10875,58L586.4835714285714,58L592.8583928571428,58L599.2332142857142,58L605.6080357142857,58L611.9828571428571,58L618.3576785714286,58L624.7325,58L631.1073214285715,58L637.4821428571429,58L643.8569642857143,58L650.2317857142857,58L656.6066071428572,58L662.9814285714286,58L669.35625,58L675.7310714285715,58L682.1058928571429,58L688.4807142857144,58L694.8555357142858,58L701.2303571428572,58L707.6051785714285,58L713.98,58L720.3548214285714,58L726.7296428571428,58L733.1044642857142,58L739.4792857142858,58L745.8541071428572,58L752.2289285714286,58L758.60375,58L764.9785714285714,58L771.3533928571429,58L777.7282142857143,58L784.1030357142857,58L790.4778571428571,58L796.8526785714287,58L803.2275000000001,58L809.6023214285715,58L815.9771428571429,58L822.3519642857143,58L828.7267857142857,58" style="fill: none;" fill="none"></path></g><g><path stroke="rgb(0, 119, 187)" stroke-width="2px" d="M63.74821428571428,58L70.12303571428572,58L76.49785714285714,58L82.87267857142858,127.04761493206024L89.2475,230.6190459728241L95.62232142857142,307.5578236877918L101.99714285714286,348L108.37196428571428,146.7755024433136L114.7467857142857,337.1496603563428L121.12160714285713,58L127.49642857142857,58L133.87125,58L140.24607142857144,58L146.62089285714285,58L152.99571428571429,58L159.37053571428572,58L165.74535714285716,58L172.1201785714286,58L178.495,58L184.86982142857144,58L191.24464285714285,58L197.6194642857143,58L203.99428571428572,58L210.36910714285713,58L216.74392857142857,58L223.11875,58L229.4935714285714,58L235.86839285714288,58L242.24321428571426,58L248.61803571428572,58L254.99285714285713,58L261.3676785714286,58L267.7425,58L274.1173214285715,58L280.4921428571429,58L286.8669642857143,58L293.2417857142857,58L299.6166071428571,58L305.99142857142857,58L312.36625,58L318.74107142857144,58L325.11589285714285,58L331.4907142857143,58L337.8655357142857,58L344.2403571428572,58L350.6151785714286,58L356.99,58L363.3648214285714,58L369.7396428571429,58L376.1144642857143,58L382.4892857142857,58L388.86410714285716,58L395.2389285714286,58L401.61375000000004,58L407.98857142857145,58L414.36339285714286,58L420.73821428571426,58L427.11303571428573,58L433.48785714285714,58L439.8626785714286,58L446.2375,58L452.6123214285714,58L458.9871428571428,58L465.36196428571435,58L471.73678571428576,58L478.11160714285717,58L484.4864285714285,58L490.86125000000004,58L497.23607142857145,58L503.61089285714286,58L509.98571428571427,58L516.3605357142858,58L522.7353571428572,58L529.1101785714286,58L535.485,58L541.8598214285714,58L548.234642857143,58L554.6094642857144,58L560.9842857142858,58L567.3591071428572,58L573.7339285714286,58L580.10875,58L586.4835714285714,58L592.8583928571428,58L599.2332142857142,58L605.6080357142857,58L611.9828571428571,58L618.3576785714286,58L624.7325,58L631.1073214285715,58L637.4821428571429,58L643.8569642857143,58L650.2317857142857,58L656.6066071428572,58L662.9814285714286,58L669.35625,58L675.7310714285715,58L682.1058928571429,58L688.4807142857144,58L694.8555357142858,58L701.2303571428572,58L707.6051785714285,58L713.98,58L720.3548214285714,58L726.7296428571428,58L733.1044642857142,58L739.4792857142858,58L745.8541071428572,58L752.2289285714286,58L758.60375,58L764.9785714285714,58L771.3533928571429,58L777.7282142857143,58L784.1030357142857,58L790.4778571428571,58L796.8526785714287,58L803.2275000000001,58L809.6023214285715,58L815.9771428571429,58L822.3519642857143,58L828.7267857142857,58" style="fill: none;" fill="none"></path></g><g><path stroke="rgb(255, 112, 67)" stroke-width="2px" d="M63.74821428571428,348L70.12303571428572,348L76.49785714285714,311.63140523433685L82.87267857142858,187.97818648815155L89.2475,97.53108727931976L95.62232142857142,115.24099695682526L101.99714285714286,60.21373438835144L108.37196428571428,142.28025782108307L114.7467857142857,108.44165015220648L121.12160714285713,151.29335629940033L127.49642857142857,79.34678125381464L133.87125,94.68484747409826L140.24607142857144,58L146.62089285714285,58L152.99571428571429,58L159.37053571428572,58L165.74535714285716,58L172.1201785714286,58L178.495,58L184.86982142857144,58L191.24464285714285,58L197.6194642857143,58L203.99428571428572,58L210.36910714285713,58L216.74392857142857,58L223.11875,58L229.4935714285714,58L235.86839285714288,58L242.24321428571426,58L248.61803571428572,58L254.99285714285713,58L261.3676785714286,58L267.7425,58L274.1173214285715,58L280.4921428571429,58L286.8669642857143,58L293.2417857142857,58L299.6166071428571,58L305.99142857142857,58L312.36625,58L318.74107142857144,58L325.11589285714285,58L331.4907142857143,58L337.8655357142857,58L344.2403571428572,58L350.6151785714286,58L356.99,58L363.3648214285714,58L369.7396428571429,58L376.1144642857143,58L382.4892857142857,58L388.86410714285716,58L395.2389285714286,58L401.61375000000004,58L407.98857142857145,58L414.36339285714286,58L420.73821428571426,58L427.11303571428573,58L433.48785714285714,58L439.8626785714286,58L446.2375,58L452.6123214285714,58L458.9871428571428,58L465.36196428571435,58L471.73678571428576,58L478.11160714285717,58L484.4864285714285,58L490.86125000000004,58L497.23607142857145,58L503.61089285714286,58L509.98571428571427,58L516.3605357142858,58L522.7353571428572,58L529.1101785714286,58L535.485,58L541.8598214285714,58L548.234642857143,58L554.6094642857144,58L560.9842857142858,58L567.3591071428572,58L573.7339285714286,58L580.10875,58L586.4835714285714,58L592.8583928571428,58L599.2332142857142,58L605.6080357142857,58L611.9828571428571,58L618.3576785714286,58L624.7325,58L631.1073214285715,58L637.4821428571429,58L643.8569642857143,58L650.2317857142857,58L656.6066071428572,58L662.9814285714286,58L669.35625,58L675.7310714285715,58L682.1058928571429,58L688.4807142857144,58L694.8555357142858,58L701.2303571428572,58L707.6051785714285,58L713.98,58L720.3548214285714,58L726.7296428571428,58L733.1044642857142,58L739.4792857142858,58L745.8541071428572,58L752.2289285714286,58L758.60375,58L764.9785714285714,58L771.3533928571429,58L777.7282142857143,58L784.1030357142857,58L790.4778571428571,58L796.8526785714287,58L803.2275000000001,58L809.6023214285715,58L815.9771428571429,58L822.3519642857143,58L828.7267857142857,58" style="fill: none;" fill="none"></path></g><g><path stroke="rgb(187, 187, 187)" stroke-width="2px" d="M63.74821428571428,348L70.12303571428572,348L76.49785714285714,348L82.87267857142858,348L89.2475,348L95.62232142857142,348L101.99714285714286,348L108.37196428571428,348L114.7467857142857,348L121.12160714285713,348L127.49642857142857,348L133.87125,348L140.24607142857144,348L146.62089285714285,348L152.99571428571429,348L159.37053571428572,348L165.74535714285716,348L172.1201785714286,348L178.495,348L184.86982142857144,348L191.24464285714285,348L197.6194642857143,348L203.99428571428572,348L210.36910714285713,348L216.74392857142857,348L223.11875,348L229.4935714285714,348L235.86839285714288,348L242.24321428571426,348L248.61803571428572,348L254.99285714285713,348L261.3676785714286,348L267.7425,348L274.1173214285715,348L280.4921428571429,348L286.8669642857143,348L293.2417857142857,348L299.6166071428571,348L305.99142857142857,348L312.36625,348L318.74107142857144,348L325.11589285714285,348L331.4907142857143,348L337.8655357142857,348L344.2403571428572,348L350.6151785714286,348L356.99,348L363.3648214285714,348L369.7396428571429,348L376.1144642857143,348L382.4892857142857,348L388.86410714285716,348L395.2389285714286,348L401.61375000000004,348L407.98857142857145,348L414.36339285714286,348L420.73821428571426,348L427.11303571428573,348L433.48785714285714,348L439.8626785714286,348L446.2375,348L452.6123214285714,348L458.9871428571428,348L465.36196428571435,348L471.73678571428576,348L478.11160714285717,348L484.4864285714285,348L490.86125000000004,348L497.23607142857145,348L503.61089285714286,348L509.98571428571427,348L516.3605357142858,348L522.7353571428572,348L529.1101785714286,348L535.485,348L541.8598214285714,348L548.234642857143,348L554.6094642857144,348L560.9842857142858,348L567.3591071428572,348L573.7339285714286,348L580.10875,348L586.4835714285714,348L592.8583928571428,348L599.2332142857142,348L605.6080357142857,348L611.9828571428571,348L618.3576785714286,348L624.7325,348L631.1073214285715,348L637.4821428571429,348L643.8569642857143,348L650.2317857142857,348L656.6066071428572,348L662.9814285714286,348L669.35625,348L675.7310714285715,348L682.1058928571429,348L688.4807142857144,348L694.8555357142858,348L701.2303571428572,348L707.6051785714285,348L713.98,348L720.3548214285714,348L726.7296428571428,348L733.1044642857142,348L739.4792857142858,348L745.8541071428572,348L752.2289285714286,348L758.60375,348L764.9785714285714,348L771.3533928571429,348L777.7282142857143,348L784.1030357142857,348L790.4778571428571,348L796.8526785714287,348L803.2275000000001,348L809.6023214285715,348L815.9771428571429,348L822.3519642857143,348L828.7267857142857,348" style="fill: none;" fill="none"></path></g><g><path stroke="rgb(0, 153, 136)" stroke-width="2px" d="M63.74821428571428,348L70.12303571428572,348L76.49785714285714,348L82.87267857142858,348L89.2475,348L95.62232142857142,348L101.99714285714286,348L108.37196428571428,348L114.7467857142857,348L121.12160714285713,348L127.49642857142857,348L133.87125,348L140.24607142857144,348L146.62089285714285,348L152.99571428571429,348L159.37053571428572,348L165.74535714285716,348L172.1201785714286,348L178.495,348L184.86982142857144,348L191.24464285714285,348L197.6194642857143,348L203.99428571428572,348L210.36910714285713,348L216.74392857142857,348L223.11875,348L229.4935714285714,348L235.86839285714288,348L242.24321428571426,348L248.61803571428572,348L254.99285714285713,348L261.3676785714286,348L267.7425,348L274.1173214285715,348L280.4921428571429,348L286.8669642857143,348L293.2417857142857,348L299.6166071428571,348L305.99142857142857,348L312.36625,348L318.74107142857144,348L325.11589285714285,348L331.4907142857143,348L337.8655357142857,348L344.2403571428572,348L350.6151785714286,348L356.99,348L363.3648214285714,348L369.7396428571429,348L376.1144642857143,348L382.4892857142857,348L388.86410714285716,348L395.2389285714286,348L401.61375000000004,348L407.98857142857145,348L414.36339285714286,348L420.73821428571426,348L427.11303571428573,348L433.48785714285714,348L439.8626785714286,348L446.2375,348L452.6123214285714,348L458.9871428571428,348L465.36196428571435,348L471.73678571428576,348L478.11160714285717,348L484.4864285714285,348L490.86125000000004,348L497.23607142857145,348L503.61089285714286,348L509.98571428571427,348L516.3605357142858,348L522.7353571428572,348L529.1101785714286,348L535.485,348L541.8598214285714,348L548.234642857143,348L554.6094642857144,348L560.9842857142858,348L567.3591071428572,348L573.7339285714286,348L580.10875,348L586.4835714285714,348L592.8583928571428,348L599.2332142857142,348L605.6080357142857,348L611.9828571428571,348L618.3576785714286,348L624.7325,348L631.1073214285715,348L637.4821428571429,348L643.8569642857143,348L650.2317857142857,348L656.6066071428572,348L662.9814285714286,348L669.35625,348L675.7310714285715,348L682.1058928571429,348L688.4807142857144,348L694.8555357142858,348L701.2303571428572,348L707.6051785714285,348L713.98,348L720.3548214285714,348L726.7296428571428,348L733.1044642857142,348L739.4792857142858,348L745.8541071428572,348L752.2289285714286,348L758.60375,348L764.9785714285714,348L771.3533928571429,348L777.7282142857143,348L784.1030357142857,348L790.4778571428571,348L796.8526785714287,348L803.2275000000001,348L809.6023214285715,348L815.9771428571429,348L822.3519642857143,348L828.7267857142857,348" style="fill: none;" fill="none"></path></g><g><path stroke="rgb(238, 51, 119)" stroke-width="2px" d="M63.74821428571428,348L70.12303571428572,348L76.49785714285714,348L82.87267857142858,348L89.2475,348L95.62232142857142,348L101.99714285714286,348L108.37196428571428,348L114.7467857142857,348L121.12160714285713,348L127.49642857142857,348L133.87125,348L140.24607142857144,348L146.62089285714285,348L152.99571428571429,348L159.37053571428572,348L165.74535714285716,348L172.1201785714286,348L178.495,348L184.86982142857144,348L191.24464285714285,348L197.6194642857143,348L203.99428571428572,348L210.36910714285713,348L216.74392857142857,348L223.11875,348L229.4935714285714,348L235.86839285714288,348L242.24321428571426,348L248.61803571428572,348L254.99285714285713,348L261.3676785714286,348L267.7425,348L274.1173214285715,348L280.4921428571429,348L286.8669642857143,348L293.2417857142857,348L299.6166071428571,348L305.99142857142857,348L312.36625,348L318.74107142857144,348L325.11589285714285,348L331.4907142857143,348L337.8655357142857,348L344.2403571428572,348L350.6151785714286,348L356.99,348L363.3648214285714,348L369.7396428571429,348L376.1144642857143,348L382.4892857142857,348L388.86410714285716,348L395.2389285714286,348L401.61375000000004,348L407.98857142857145,348L414.36339285714286,348L420.73821428571426,348L427.11303571428573,348L433.48785714285714,348L439.8626785714286,348L446.2375,348L452.6123214285714,348L458.9871428571428,348L465.36196428571435,348L471.73678571428576,348L478.11160714285717,348L484.4864285714285,348L490.86125000000004,348L497.23607142857145,348L503.61089285714286,348L509.98571428571427,348L516.3605357142858,348L522.7353571428572,348L529.1101785714286,348L535.485,348L541.8598214285714,348L548.234642857143,348L554.6094642857144,348L560.9842857142858,348L567.3591071428572,348L573.7339285714286,348L580.10875,348L586.4835714285714,348L592.8583928571428,348L599.2332142857142,348L605.6080357142857,348L611.9828571428571,348L618.3576785714286,348L624.7325,348L631.1073214285715,348L637.4821428571429,348L643.8569642857143,348L650.2317857142857,348L656.6066071428572,348L662.9814285714286,348L669.35625,348L675.7310714285715,348L682.1058928571429,348L688.4807142857144,348L694.8555357142858,348L701.2303571428572,348L707.6051785714285,348L713.98,348L720.3548214285714,348L726.7296428571428,348L733.1044642857142,348L739.4792857142858,348L745.8541071428572,348L752.2289285714286,348L758.60375,348L764.9785714285714,348L771.3533928571429,348L777.7282142857143,348L784.1030357142857,348L790.4778571428571,348L796.8526785714287,348L803.2275000000001,348L809.6023214285715,348L815.9771428571429,348L822.3519642857143,348L828.7267857142857,348" style="fill: none;" fill="none"></path></g><g><path stroke="rgb(51, 187, 238)" stroke-width="2px" d="M63.74821428571428,348L70.12303571428572,348L76.49785714285714,348L82.87267857142858,348L89.2475,348L95.62232142857142,348L101.99714285714286,348L108.37196428571428,348L114.7467857142857,348L121.12160714285713,348L127.49642857142857,348L133.87125,348L140.24607142857144,348L146.62089285714285,348L152.99571428571429,348L159.37053571428572,348L165.74535714285716,348L172.1201785714286,348L178.495,348L184.86982142857144,348L191.24464285714285,348L197.6194642857143,348L203.99428571428572,348L210.36910714285713,348L216.74392857142857,348L223.11875,348L229.4935714285714,348L235.86839285714288,348L242.24321428571426,348L248.61803571428572,348L254.99285714285713,348L261.3676785714286,348L267.7425,348L274.1173214285715,348L280.4921428571429,348L286.8669642857143,348L293.2417857142857,348L299.6166071428571,348L305.99142857142857,348L312.36625,348L318.74107142857144,348L325.11589285714285,348L331.4907142857143,348L337.8655357142857,348L344.2403571428572,348L350.6151785714286,348L356.99,348L363.3648214285714,348L369.7396428571429,348L376.1144642857143,348L382.4892857142857,348L388.86410714285716,348L395.2389285714286,348L401.61375000000004,348L407.98857142857145,348L414.36339285714286,348L420.73821428571426,348L427.11303571428573,348L433.48785714285714,348L439.8626785714286,348L446.2375,348L452.6123214285714,348L458.9871428571428,348L465.36196428571435,348L471.73678571428576,348L478.11160714285717,348L484.4864285714285,348L490.86125000000004,348L497.23607142857145,348L503.61089285714286,348L509.98571428571427,348L516.3605357142858,348L522.7353571428572,348L529.1101785714286,348L535.485,348L541.8598214285714,348L548.234642857143,348L554.6094642857144,348L560.9842857142858,348L567.3591071428572,348L573.7339285714286,348L580.10875,348L586.4835714285714,348L592.8583928571428,348L599.2332142857142,348L605.6080357142857,348L611.9828571428571,348L618.3576785714286,348L624.7325,348L631.1073214285715,348L637.4821428571429,348L643.8569642857143,348L650.2317857142857,348L656.6066071428572,348L662.9814285714286,348L669.35625,348L675.7310714285715,348L682.1058928571429,348L688.4807142857144,348L694.8555357142858,348L701.2303571428572,348L707.6051785714285,348L713.98,348L720.3548214285714,348L726.7296428571428,348L733.1044642857142,348L739.4792857142858,348L745.8541071428572,348L752.2289285714286,348L758.60375,348L764.9785714285714,348L771.3533928571429,348L777.7282142857143,348L784.1030357142857,348L790.4778571428571,348L796.8526785714287,348L803.2275000000001,348L809.6023214285715,348L815.9771428571429,348L822.3519642857143,348L828.7267857142857,348" style="fill: none;" fill="none"></path></g><g><path stroke="rgb(204, 51, 17)" stroke-width="2px" d="M63.74821428571428,348L70.12303571428572,348L76.49785714285714,348L82.87267857142858,348L89.2475,348L95.62232142857142,348L101.99714285714286,348L108.37196428571428,348L114.7467857142857,348L121.12160714285713,348L127.49642857142857,348L133.87125,348L140.24607142857144,348L146.62089285714285,348L152.99571428571429,348L159.37053571428572,348L165.74535714285716,348L172.1201785714286,348L178.495,348L184.86982142857144,348L191.24464285714285,348L197.6194642857143,348L203.99428571428572,348L210.36910714285713,348L216.74392857142857,348L223.11875,348L229.4935714285714,348L235.86839285714288,348L242.24321428571426,348L248.61803571428572,348L254.99285714285713,348L261.3676785714286,348L267.7425,348L274.1173214285715,348L280.4921428571429,348L286.8669642857143,348L293.2417857142857,348L299.6166071428571,348L305.99142857142857,348L312.36625,348L318.74107142857144,348L325.11589285714285,348L331.4907142857143,348L337.8655357142857,348L344.2403571428572,348L350.6151785714286,348L356.99,348L363.3648214285714,348L369.7396428571429,348L376.1144642857143,348L382.4892857142857,348L388.86410714285716,348L395.2389285714286,348L401.61375000000004,348L407.98857142857145,348L414.36339285714286,348L420.73821428571426,348L427.11303571428573,348L433.48785714285714,348L439.8626785714286,348L446.2375,348L452.6123214285714,348L458.9871428571428,348L465.36196428571435,348L471.73678571428576,348L478.11160714285717,348L484.4864285714285,348L490.86125000000004,348L497.23607142857145,348L503.61089285714286,348L509.98571428571427,348L516.3605357142858,348L522.7353571428572,348L529.1101785714286,348L535.485,348L541.8598214285714,348L548.234642857143,348L554.6094642857144,348L560.9842857142858,348L567.3591071428572,348L573.7339285714286,348L580.10875,348L586.4835714285714,348L592.8583928571428,348L599.2332142857142,348L605.6080357142857,348L611.9828571428571,348L618.3576785714286,348L624.7325,348L631.1073214285715,348L637.4821428571429,348L643.8569642857143,348L650.2317857142857,348L656.6066071428572,348L662.9814285714286,348L669.35625,348L675.7310714285715,348L682.1058928571429,348L688.4807142857144,348L694.8555357142858,348L701.2303571428572,348L707.6051785714285,348L713.98,348L720.3548214285714,348L726.7296428571428,348L733.1044642857142,348L739.4792857142858,348L745.8541071428572,348L752.2289285714286,348L758.60375,348L764.9785714285714,348L771.3533928571429,348L777.7282142857143,348L784.1030357142857,348L790.4778571428571,348L796.8526785714287,348L803.2275000000001,348L809.6023214285715,348L815.9771428571429,348L822.3519642857143,348L828.7267857142857,348" style="fill: none;" fill="none"></path></g></g></g></g></g></g><g transform="translate(53, 377)" clip-path="url(#clip_1)"><clipPath id="clip_1"><rect width="892" height="23"></rect></clipPath><g><g><line x1="0" y1="0" x2="0" y2="5" style="visibility: inherit;" fill="rgb(0, 0, 0)" stroke="rgb(204, 204, 204)" stroke-width="1px"></line><line x1="63.74821428571428" y1="0" x2="63.74821428571428" y2="5" style="visibility: inherit;" fill="rgb(0, 0, 0)" stroke="rgb(204, 204, 204)" stroke-width="1px"></line><line x1="127.49642857142857" y1="0" x2="127.49642857142857" y2="5" style="visibility: inherit;" fill="rgb(0, 0, 0)" stroke="rgb(204, 204, 204)" stroke-width="1px"></line><line x1="191.24464285714285" y1="0" x2="191.24464285714285" y2="5" style="visibility: inherit;" fill="rgb(0, 0, 0)" stroke="rgb(204, 204, 204)" stroke-width="1px"></line><line x1="254.99285714285713" y1="0" x2="254.99285714285713" y2="5" style="visibility: inherit;" fill="rgb(0, 0, 0)" stroke="rgb(204, 204, 204)" stroke-width="1px"></line><line x1="318.74107142857144" y1="0" x2="318.74107142857144" y2="5" style="visibility: inherit;" fill="rgb(0, 0, 0)" stroke="rgb(204, 204, 204)" stroke-width="1px"></line><line x1="382.4892857142857" y1="0" x2="382.4892857142857" y2="5" style="visibility: inherit;" fill="rgb(0, 0, 0)" stroke="rgb(204, 204, 204)" stroke-width="1px"></line><line x1="446.2375" y1="0" x2="446.2375" y2="5" style="visibility: inherit;" fill="rgb(0, 0, 0)" stroke="rgb(204, 204, 204)" stroke-width="1px"></line><line x1="509.98571428571427" y1="0" x2="509.98571428571427" y2="5" style="visibility: inherit;" fill="rgb(0, 0, 0)" stroke="rgb(204, 204, 204)" stroke-width="1px"></line><line x1="573.7339285714286" y1="0" x2="573.7339285714286" y2="5" style="visibility: inherit;" fill="rgb(0, 0, 0)" stroke="rgb(204, 204, 204)" stroke-width="1px"></line><line x1="637.4821428571429" y1="0" x2="637.4821428571429" y2="5" style="visibility: inherit;" fill="rgb(0, 0, 0)" stroke="rgb(204, 204, 204)" stroke-width="1px"></line><line x1="701.2303571428572" y1="0" x2="701.2303571428572" y2="5" style="visibility: inherit;" fill="rgb(0, 0, 0)" stroke="rgb(204, 204, 204)" stroke-width="1px"></line><line x1="764.9785714285714" y1="0" x2="764.9785714285714" y2="5" style="visibility: inherit;" fill="rgb(0, 0, 0)" stroke="rgb(204, 204, 204)" stroke-width="1px"></line><line x1="828.7267857142857" y1="0" x2="828.7267857142857" y2="5" style="visibility: inherit;" fill="rgb(0, 0, 0)" stroke="rgb(204, 204, 204)" stroke-width="1px"></line><line x1="892.475" y1="0" x2="892.475" y2="5" style="visibility: inherit;" fill="rgb(0, 0, 0)" stroke="rgb(204, 204, 204)" stroke-width="1px"></line></g><g transform="translate(0, 8)"><text x="0" y="0" dx="0em" dy="0.95em" style="text-anchor: middle; visibility: hidden; font-family: &quot;Helvetica Neue&quot;, sans-serif; font-size: 12px; font-weight: 200;" fill="rgb(50, 49, 63)" stroke="none" stroke-width="1px">-10</text><text x="63.74821428571428" y="0" dx="0em" dy="0.95em" style="text-anchor: middle; visibility: inherit; font-family: &quot;Helvetica Neue&quot;, sans-serif; font-size: 12px; font-weight: 200;" fill="rgb(50, 49, 63)" stroke="none" stroke-width="1px">0</text><text x="127.49642857142857" y="0" dx="0em" dy="0.95em" style="text-anchor: middle; visibility: inherit; font-family: &quot;Helvetica Neue&quot;, sans-serif; font-size: 12px; font-weight: 200;" fill="rgb(50, 49, 63)" stroke="none" stroke-width="1px">10</text><text x="191.24464285714285" y="0" dx="0em" dy="0.95em" style="text-anchor: middle; visibility: inherit; font-family: &quot;Helvetica Neue&quot;, sans-serif; font-size: 12px; font-weight: 200;" fill="rgb(50, 49, 63)" stroke="none" stroke-width="1px">20</text><text x="254.99285714285713" y="0" dx="0em" dy="0.95em" style="text-anchor: middle; visibility: inherit; font-family: &quot;Helvetica Neue&quot;, sans-serif; font-size: 12px; font-weight: 200;" fill="rgb(50, 49, 63)" stroke="none" stroke-width="1px">30</text><text x="318.74107142857144" y="0" dx="0em" dy="0.95em" style="text-anchor: middle; visibility: inherit; font-family: &quot;Helvetica Neue&quot;, sans-serif; font-size: 12px; font-weight: 200;" fill="rgb(50, 49, 63)" stroke="none" stroke-width="1px">40</text><text x="382.4892857142857" y="0" dx="0em" dy="0.95em" style="text-anchor: middle; visibility: inherit; font-family: &quot;Helvetica Neue&quot;, sans-serif; font-size: 12px; font-weight: 200;" fill="rgb(50, 49, 63)" stroke="none" stroke-width="1px">50</text><text x="446.2375" y="0" dx="0em" dy="0.95em" style="text-anchor: middle; visibility: inherit; font-family: &quot;Helvetica Neue&quot;, sans-serif; font-size: 12px; font-weight: 200;" fill="rgb(50, 49, 63)" stroke="none" stroke-width="1px">60</text><text x="509.98571428571427" y="0" dx="0em" dy="0.95em" style="text-anchor: middle; visibility: inherit; font-family: &quot;Helvetica Neue&quot;, sans-serif; font-size: 12px; font-weight: 200;" fill="rgb(50, 49, 63)" stroke="none" stroke-width="1px">70</text><text x="573.7339285714286" y="0" dx="0em" dy="0.95em" style="text-anchor: middle; visibility: inherit; font-family: &quot;Helvetica Neue&quot;, sans-serif; font-size: 12px; font-weight: 200;" fill="rgb(50, 49, 63)" stroke="none" stroke-width="1px">80</text><text x="637.4821428571429" y="0" dx="0em" dy="0.95em" style="text-anchor: middle; visibility: inherit; font-family: &quot;Helvetica Neue&quot;, sans-serif; font-size: 12px; font-weight: 200;" fill="rgb(50, 49, 63)" stroke="none" stroke-width="1px">90</text><text x="701.2303571428572" y="0" dx="0em" dy="0.95em" style="text-anchor: middle; visibility: inherit; font-family: &quot;Helvetica Neue&quot;, sans-serif; font-size: 12px; font-weight: 200;" fill="rgb(50, 49, 63)" stroke="none" stroke-width="1px">100</text><text x="764.9785714285714" y="0" dx="0em" dy="0.95em" style="text-anchor: middle; visibility: inherit; font-family: &quot;Helvetica Neue&quot;, sans-serif; font-size: 12px; font-weight: 200;" fill="rgb(50, 49, 63)" stroke="none" stroke-width="1px">110</text><text x="828.7267857142857" y="0" dx="0em" dy="0.95em" style="text-anchor: middle; visibility: inherit; font-family: &quot;Helvetica Neue&quot;, sans-serif; font-size: 12px; font-weight: 200;" fill="rgb(50, 49, 63)" stroke="none" stroke-width="1px">120</text><text x="892.475" y="0" dx="0em" dy="0.95em" style="text-anchor: middle; visibility: hidden; font-family: &quot;Helvetica Neue&quot;, sans-serif; font-size: 12px; font-weight: 200;" fill="rgb(50, 49, 63)" stroke="none" stroke-width="1px">130</text></g><line x1="0" y1="0" x2="892.475" y2="0" fill="rgb(0, 0, 0)" stroke="rgb(204, 204, 204)" stroke-width="1px"></line></g></g></g></g></svg>