<svg viewBox="0 0 945.6000366210938 400" xmlns="http://www.w3.org/2000/svg"><g><g><g><g><g><line x1="53.125" y1="377" x2="48.125" y2="377" style="visibility: inherit;" fill="rgb(0, 0, 0)" stroke="rgb(204, 204, 204)" stroke-width="1px"></line><line x1="53.125" y1="329.875" x2="48.125" y2="329.875" style="visibility: inherit;" fill="rgb(0, 0, 0)" stroke="rgb(204, 204, 204)" stroke-width="1px"></line><line x1="53.125" y1="282.75" x2="48.125" y2="282.75" style="visibility: inherit;" fill="rgb(0, 0, 0)" stroke="rgb(204, 204, 204)" stroke-width="1px"></line><line x1="53.125" y1="235.62499999999997" x2="48.125" y2="235.62499999999997" style="visibility: inherit;" fill="rgb(0, 0, 0)" stroke="rgb(204, 204, 204)" stroke-width="1px"></line><line x1="53.125" y1="188.49999999999997" x2="48.125" y2="188.49999999999997" style="visibility: inherit;" fill="rgb(0, 0, 0)" stroke="rgb(204, 204, 204)" stroke-width="1px"></line><line x1="53.125" y1="141.375" x2="48.125" y2="141.375" style="visibility: inherit;" fill="rgb(0, 0, 0)" stroke="rgb(204, 204, 204)" stroke-width="1px"></line><line x1="53.125" y1="94.25" x2="48.125" y2="94.25" style="visibility: inherit;" fill="rgb(0, 0, 0)" stroke="rgb(204, 204, 204)" stroke-width="1px"></line><line x1="53.125" y1="47.125" x2="48.125" y2="47.125" style="visibility: inherit;" fill="rgb(0, 0, 0)" stroke="rgb(204, 204, 204)" stroke-width="1px"></line><line x1="53.125" y1="0" x2="48.125" y2="0" style="visibility: inherit;" fill="rgb(0, 0, 0)" stroke="rgb(204, 204, 204)" stroke-width="1px"></line></g><g transform="translate(43.125, 0)"><text x="0" y="377" dx="0em" dy="0.3em" style="text-anchor: end; visibility: hidden; font-family: &quot;Helvetica Neue&quot;, sans-serif; font-size: 12px; font-weight: 200;" fill="rgb(50, 49, 63)" stroke="none" stroke-width="1px">-0.2</text><text x="0" y="329.875" dx="0em" dy="0.3em" style="text-anchor: end; visibility: inherit; font-family: &quot;Helvetica Neue&quot;, sans-serif; font-size: 12px; font-weight: 200;" fill="rgb(50, 49, 63)" stroke="none" stroke-width="1px">0</text><text x="0" y="282.75" dx="0em" dy="0.3em" style="text-anchor: end; visibility: inherit; font-family: &quot;Helvetica Neue&quot;, sans-serif; font-size: 12px; font-weight: 200;" fill="rgb(50, 49, 63)" stroke="none" stroke-width="1px">0.2</text><text x="0" y="235.62499999999997" dx="0em" dy="0.3em" style="text-anchor: end; visibility: inherit; font-family: &quot;Helvetica Neue&quot;, sans-serif; font-size: 12px; font-weight: 200;" fill="rgb(50, 49, 63)" stroke="none" stroke-width="1px">0.4</text><text x="0" y="188.49999999999997" dx="0em" dy="0.3em" style="text-anchor: end; visibility: inherit; font-family: &quot;Helvetica Neue&quot;, sans-serif; font-size: 12px; font-weight: 200;" fill="rgb(50, 49, 63)" stroke="none" stroke-width="1px">0.6</text><text x="0" y="141.375" dx="0em" dy="0.3em" style="text-anchor: end; visibility: inherit; font-family: &quot;Helvetica Neue&quot;, sans-serif; font-size: 12px; font-weight: 200;" fill="rgb(50, 49, 63)" stroke="none" stroke-width="1px">0.8</text><text x="0" y="94.25" dx="0em" dy="0.3em" style="text-anchor: end; visibility: inherit; font-family: &quot;Helvetica Neue&quot;, sans-serif; font-size: 12px; font-weight: 200;" fill="rgb(50, 49, 63)" stroke="none" stroke-width="1px">1</text><text x="0" y="47.125" dx="0em" dy="0.3em" style="text-anchor: end; visibility: inherit; font-family: &quot;Helvetica Neue&quot;, sans-serif; font-size: 12px; font-weight: 200;" fill="rgb(50, 49, 63)" stroke="none" stroke-width="1px">1.2</text><text x="0" y="0" dx="0em" dy="0.3em" style="text-anchor: end; visibility: hidden; font-family: &quot;Helvetica Neue&quot;, sans-serif; font-size: 12px; font-weight: 200;" fill="rgb(50, 49, 63)" stroke="none" stroke-width="1px">1.4</text></g><line x1="53.125" y1="0" x2="53.125" y2="377" fill="rgb(0, 0, 0)" stroke="rgb(204, 204, 204)" stroke-width="1px"></line></g></g><g transform="translate(53, 0)" clip-path="url(#clip_0)"><clipPath id="clip_0"><rect width="892" height="377"></rect></clipPath><g><g><g><line x1="0" y1="0" x2="0" y2="377" fill="rgb(0, 0, 0)" stroke="rgb(60, 60, 60)" stroke-width="1px" opacity="0.25"></line><line x1="63.74821428571428" y1="0" x2="63.74821428571428" y2="377" fill="rgb(0, 0, 0)" stroke="rgb(60, 60, 60)" stroke-width="1px" opacity="0.25"></line><line x1="127.49642857142857" y1="0" x2="127.49642857142857" y2="377" fill="rgb(0, 0, 0)" stroke="rgb(60, 60, 60)" stroke-width="1px" opacity="0.25"></line><line x1="191.24464285714285" y1="0" x2="191.24464285714285" y2="377" fill="rgb(0, 0, 0)" stroke="rgb(60, 60, 60)" stroke-width="1px" opacity="0.25"></line><line x1="254.99285714285713" y1="0" x2="254.99285714285713" y2="377" fill="rgb(0, 0, 0)" stroke="rgb(60, 60, 60)" stroke-width="1px" opacity="0.25"></line><line x1="318.74107142857144" y1="0" x2="318.74107142857144" y2="377" fill="rgb(0, 0, 0)" stroke="rgb(60, 60, 60)" stroke-width="1px" opacity="0.25"></line><line x1="382.4892857142857" y1="0" x2="382.4892857142857" y2="377" fill="rgb(0, 0, 0)" stroke="rgb(60, 60, 60)" stroke-width="1px" opacity="0.25"></line><line x1="446.2375" y1="0" x2="446.2375" y2="377" fill="rgb(0, 0, 0)" stroke="rgb(60, 60, 60)" stroke-width="1px" opacity="0.25"></line><line x1="509.98571428571427" y1="0" x2="509.98571428571427" y2="377" fill="rgb(0, 0, 0)" stroke="rgb(60, 60, 60)" stroke-width="1px" opacity="0.25"></line><line x1="573.7339285714286" y1="0" x2="573.7339285714286" y2="377" fill="rgb(0, 0, 0)" stroke="rgb(60, 60, 60)" stroke-width="1px" opacity="0.25"></line><line x1="637.4821428571429" y1="0" x2="637.4821428571429" y2="377" fill="rgb(0, 0, 0)" stroke="rgb(60, 60, 60)" stroke-width="1px" opacity="0.25"></line><line x1="701.2303571428572" y1="0" x2="701.2303571428572" y2="377" fill="rgb(0, 0, 0)" stroke="rgb(60, 60, 60)" stroke-width="1px" opacity="0.25"></line><line x1="764.9785714285714" y1="0" x2="764.9785714285714" y2="377" fill="rgb(0, 0, 0)" stroke="rgb(60, 60, 60)" stroke-width="1px" opacity="0.25"></line><line x1="828.7267857142857" y1="0" x2="828.7267857142857" y2="377" fill="rgb(0, 0, 0)" stroke="rgb(60, 60, 60)" stroke-width="1px" opacity="0.25"></line><line x1="892.475" y1="0" x2="892.475" y2="377" fill="rgb(0, 0, 0)" stroke="rgb(60, 60, 60)" stroke-width="1px" opacity="0.25"></line></g><g><line x1="0" y1="377" x2="892.475" y2="377" fill="rgb(0, 0, 0)" stroke="rgb(60, 60, 60)" stroke-width="1px" opacity="0.25"></line><line x1="0" y1="329.875" x2="892.475" y2="329.875" fill="rgb(0, 0, 0)" stroke="rgb(60, 60, 60)" stroke-width="1px" opacity="0.25"></line><line x1="0" y1="282.75" x2="892.475" y2="282.75" fill="rgb(0, 0, 0)" stroke="rgb(60, 60, 60)" stroke-width="1px" opacity="0.25"></line><line x1="0" y1="235.62499999999997" x2="892.475" y2="235.62499999999997" fill="rgb(0, 0, 0)" stroke="rgb(60, 60, 60)" stroke-width="1px" opacity="0.25"></line><line x1="0" y1="188.49999999999997" x2="892.475" y2="188.49999999999997" fill="rgb(0, 0, 0)" stroke="rgb(60, 60, 60)" stroke-width="1px" opacity="0.25"></line><line x1="0" y1="141.375" x2="892.475" y2="141.375" fill="rgb(0, 0, 0)" stroke="rgb(60, 60, 60)" stroke-width="1px" opacity="0.25"></line><line x1="0" y1="94.25" x2="892.475" y2="94.25" fill="rgb(0, 0, 0)" stroke="rgb(60, 60, 60)" stroke-width="1px" opacity="0.25"></line><line x1="0" y1="47.125" x2="892.475" y2="47.125" fill="rgb(0, 0, 0)" stroke="rgb(60, 60, 60)" stroke-width="1px" opacity="0.25"></line><line x1="0" y1="0" x2="892.475" y2="0" fill="rgb(0, 0, 0)" stroke="rgb(60, 60, 60)" stroke-width="1px" opacity="0.25"></line></g></g></g><g><g><line x1="0" y1="329.875" x2="892.475" y2="329.875" fill="rgb(0, 0, 0)" stroke="rgb(153, 153, 153)" stroke-width="1.5px"></line></g></g><g><g><line x1="63.74821428571428" y1="0" x2="63.74821428571428" y2="377" fill="rgb(0, 0, 0)" stroke="rgb(153, 153, 153)" stroke-width="1.5px"></line></g></g><g><g><g><g><g><path stroke="rgb(51, 187, 238)" stroke-width="2px" d="M63.74821428571428,70.81616866588593L70.12303571428572,83.39889007806778L76.49785714285714,90.4146580696106L82.87267857142858,99.08747612684965L89.2475,126.09616893529892L95.62232142857142,168.65494246780872L101.99714285714286,187.01022650301456L108.37196428571428,210.8658375889063L114.7467857142857,236.76568727195263L121.12160714285713,266.0019675940275L127.49642857142857,292.3461698014289L133.87125,310.6054186094552L140.24607142857144,321.2542381831445L146.62089285714285,325.2552230616566L152.99571428571429,326.3867923502112L159.37053571428572,327.37679442751687L165.74535714285716,327.9937800335465L172.1201785714286,328.2284913120093L178.495,328.4847180872457L184.86982142857144,328.65748524852097L191.24464285714285,328.81640051677823L197.6194642857143,328.8913761397707L203.99428571428572,328.97632840421284L210.36910714285713,328.96108074474614L216.74392857142857,329.0620804282371L223.11875,329.1215469255694L229.4935714285714,329.01180293699144L235.86839285714288,329.17637560731964L242.24321428571426,329.22141016923706L248.61803571428572,329.2853803476901L254.99285714285713,329.28631808198406L261.3676785714286,329.294001051574L267.7425,329.3215082716488L274.1173214285715,329.3755865136045L280.4921428571429,329.30499914477696L286.8669642857143,329.38966218350106L293.2417857142857,329.3506119935482L299.6166071428571,329.4019111011294L305.99142857142857,329.37814461413654L312.36625,329.3814848639595L318.74107142857144,329.4466261542111L325.11589285714285,329.3820724771358L331.4907142857143,329.44463399687083L337.8655357142857,329.46879553591134L344.2403571428572,329.3162590881984L350.6151785714286,329.48871664299804L356.99,329.3028119575756L363.3648214285714,329.478428886403L369.7396428571429,329.46313108423783L376.1144642857143,329.49559412006056L382.4892857142857,329.50121218699496L388.86410714285716,329.52736593823647L395.2389285714286,329.5227349802444L401.61375000000004,329.4766608351056L407.98857142857145,329.5231225712341L414.36339285714286,329.53023570252117L420.73821428571426,329.5307152400783L427.11303571428573,329.5429248500004L433.48785714285714,329.47871394270624L439.8626785714286,329.51698233996285L446.2375,329.5472101580235L452.6123214285714,329.56707602036477L458.9871428571428,329.5746143770957L465.36196428571435,329.5652035965468L471.73678571428576,329.55259838596976L478.11160714285717,329.55397796850593L484.4864285714285,329.59738717185974L490.86125000000004,329.6095539629896L497.23607142857145,329.53615871277L503.61089285714286,329.57439482449263L509.98571428571427,329.5481670661393L516.3605357142858,329.5795503881236L522.7353571428572,329.5805653114512L529.1101785714286,329.53322473401204L535.485,329.5493758946832L541.8598214285714,329.6034908110305L548.234642857143,329.5930661220773L554.6094642857144,329.5817120376596L560.9842857142858,329.5896029842406L567.3591071428572,329.55122220479825L573.7339285714286,329.6064452254068L580.10875,329.5751509423717L586.4835714285714,329.5924730502593L592.8583928571428,329.6108191609237L599.2332142857142,329.584060213645L605.6080357142857,329.5845637527673L611.9828571428571,329.58735007389623L618.3576785714286,329.6282551322365L624.7325,329.6333605805994L631.1073214285715,329.5903043785511L637.4821428571429,329.6213916995184L643.8569642857143,329.6052458329068L650.2317857142857,329.61789175013837L656.6066071428572,329.597814482011L662.9814285714286,329.59660867080675L669.35625,329.60632483355585L675.7310714285715,329.63423711775977L682.1058928571429,329.6053619181912L688.4807142857144,329.5678365545318L694.8555357142858,329.593370708797L701.2303571428572,329.6422299406986L707.6051785714285,329.63195705135877L713.98,329.6068350931164L720.3548214285714,329.6403824785084L726.7296428571428,329.5812215279584L733.1044642857142,329.6254963786196L739.4792857142858,329.615227164948L745.8541071428572,329.62450104056916L752.2289285714286,329.5991060405213L758.60375,329.6157602191379L764.9785714285714,329.6325113640778L771.3533928571429,329.64678514975094L777.7282142857143,329.61496065156825L784.1030357142857,329.62917265035503L790.4778571428571,329.61646408218076L796.8526785714287,329.61735430709086L803.2275000000001,329.6191614740819L809.6023214285715,329.6400416014221L815.9771428571429,329.5795029610308L822.3519642857143,329.58875017434184L828.7267857142857,329.61581705484423" style="fill: none;" fill="none"></path></g><g><path stroke="rgb(204, 51, 17)" stroke-width="2px" d="M63.74821428571428,329.875L70.12303571428572,329.875L76.49785714285714,329.875L82.87267857142858,329.875L89.2475,329.875L95.62232142857142,329.875L101.99714285714286,329.875L108.37196428571428,329.875L114.7467857142857,329.875L121.12160714285713,329.875L127.49642857142857,329.875L133.87125,329.875L140.24607142857144,329.875L146.62089285714285,329.875L152.99571428571429,329.875L159.37053571428572,329.875L165.74535714285716,329.875L172.1201785714286,329.875L178.495,329.875L184.86982142857144,329.875L191.24464285714285,329.875L197.6194642857143,329.875L203.99428571428572,329.875L210.36910714285713,329.875L216.74392857142857,329.875L223.11875,329.875L229.4935714285714,329.875L235.86839285714288,329.875L242.24321428571426,329.875L248.61803571428572,329.875L254.99285714285713,329.875L261.3676785714286,329.875L267.7425,329.875L274.1173214285715,329.875L280.4921428571429,329.875L286.8669642857143,329.875L293.2417857142857,329.875L299.6166071428571,329.875L305.99142857142857,329.875L312.36625,329.875L318.74107142857144,329.875L325.11589285714285,329.875L331.4907142857143,329.875L337.8655357142857,329.875L344.2403571428572,329.875L350.6151785714286,329.875L356.99,329.875L363.3648214285714,329.875L369.7396428571429,329.875L376.1144642857143,329.875L382.4892857142857,329.875L388.86410714285716,329.875L395.2389285714286,329.875L401.61375000000004,329.875L407.98857142857145,329.875L414.36339285714286,329.875L420.73821428571426,329.875L427.11303571428573,329.875L433.48785714285714,329.875L439.8626785714286,329.875L446.2375,329.875L452.6123214285714,329.875L458.9871428571428,329.875L465.36196428571435,329.875L471.73678571428576,329.875L478.11160714285717,329.875L484.4864285714285,329.875L490.86125000000004,329.875L497.23607142857145,329.875L503.61089285714286,329.875L509.98571428571427,329.875L516.3605357142858,329.875L522.7353571428572,329.875L529.1101785714286,329.875L535.485,329.875L541.8598214285714,329.875L548.234642857143,329.875L554.6094642857144,329.875L560.9842857142858,329.875L567.3591071428572,329.875L573.7339285714286,329.875L580.10875,329.875L586.4835714285714,329.875L592.8583928571428,329.875L599.2332142857142,329.875L605.6080357142857,329.875L611.9828571428571,329.875L618.3576785714286,329.875L624.7325,329.875L631.1073214285715,329.875L637.4821428571429,329.875L643.8569642857143,329.875L650.2317857142857,329.875L656.6066071428572,329.875L662.9814285714286,329.875L669.35625,329.875L675.7310714285715,329.875L682.1058928571429,329.875L688.4807142857144,329.875L694.8555357142858,329.875L701.2303571428572,329.875L707.6051785714285,329.875L713.98,329.875L720.3548214285714,329.875L726.7296428571428,329.875L733.1044642857142,329.875L739.4792857142858,329.875L745.8541071428572,329.875L752.2289285714286,329.875L758.60375,329.875L764.9785714285714,329.875L771.3533928571429,329.875L777.7282142857143,329.875L784.1030357142857,329.875L790.4778571428571,329.875L796.8526785714287,329.875L803.2275000000001,329.875L809.6023214285715,329.875L815.9771428571429,329.875L822.3519642857143,329.875L828.7267857142857,329.875" style="fill: none;" fill="none"></path></g><g><path stroke="rgb(0, 119, 187)" stroke-width="2px" d="M63.74821428571428,329.875L70.12303571428572,329.875L76.49785714285714,329.875L82.87267857142858,329.875L89.2475,329.875L95.62232142857142,329.875L101.99714285714286,329.875L108.37196428571428,329.875L114.7467857142857,329.875L121.12160714285713,329.875L127.49642857142857,329.875L133.87125,329.875L140.24607142857144,329.875L146.62089285714285,329.875L152.99571428571429,329.875L159.37053571428572,329.875L165.74535714285716,329.875L172.1201785714286,329.875L178.495,329.875L184.86982142857144,329.875L191.24464285714285,329.875L197.6194642857143,329.875L203.99428571428572,329.875L210.36910714285713,329.875L216.74392857142857,329.875L223.11875,329.875L229.4935714285714,329.875L235.86839285714288,329.875L242.24321428571426,329.875L248.61803571428572,329.875L254.99285714285713,329.875L261.3676785714286,329.875L267.7425,329.875L274.1173214285715,329.875L280.4921428571429,329.875L286.8669642857143,329.875L293.2417857142857,329.875L299.6166071428571,329.875L305.99142857142857,329.875L312.36625,329.875L318.74107142857144,329.875L325.11589285714285,329.875L331.4907142857143,329.875L337.8655357142857,329.875L344.2403571428572,329.875L350.6151785714286,329.875L356.99,329.875L363.3648214285714,329.875L369.7396428571429,329.875L376.1144642857143,329.875L382.4892857142857,329.875L388.86410714285716,329.875L395.2389285714286,329.875L401.61375000000004,329.875L407.98857142857145,329.875L414.36339285714286,329.875L420.73821428571426,329.875L427.11303571428573,329.875L433.48785714285714,329.875L439.8626785714286,329.875L446.2375,329.875L452.6123214285714,329.875L458.9871428571428,329.875L465.36196428571435,329.875L471.73678571428576,329.875L478.11160714285717,329.875L484.4864285714285,329.875L490.86125000000004,329.875L497.23607142857145,329.875L503.61089285714286,329.875L509.98571428571427,329.875L516.3605357142858,329.875L522.7353571428572,329.875L529.1101785714286,329.875L535.485,329.875L541.8598214285714,329.875L548.234642857143,329.875L554.6094642857144,329.875L560.9842857142858,329.875L567.3591071428572,329.875L573.7339285714286,329.875L580.10875,329.875L586.4835714285714,329.875L592.8583928571428,329.875L599.2332142857142,329.875L605.6080357142857,329.875L611.9828571428571,329.875L618.3576785714286,329.875L624.7325,329.875L631.1073214285715,329.875L637.4821428571429,329.875L643.8569642857143,329.875L650.2317857142857,329.875L656.6066071428572,329.875L662.9814285714286,329.875L669.35625,329.875L675.7310714285715,329.875L682.1058928571429,329.875L688.4807142857144,329.875L694.8555357142858,329.875L701.2303571428572,329.875L707.6051785714285,329.875L713.98,329.875L720.3548214285714,329.875L726.7296428571428,329.875L733.1044642857142,329.875L739.4792857142858,329.875L745.8541071428572,329.875L752.2289285714286,329.875L758.60375,329.875L764.9785714285714,329.875L771.3533928571429,329.875L777.7282142857143,329.875L784.1030357142857,329.875L790.4778571428571,329.875L796.8526785714287,329.875L803.2275000000001,329.875L809.6023214285715,329.875L815.9771428571429,329.875L822.3519642857143,329.875L828.7267857142857,329.875" style="fill: none;" fill="none"></path></g><g><path stroke="rgb(255, 112, 67)" stroke-width="2px" d="M63.74821428571428,329.875L70.12303571428572,329.875L76.49785714285714,329.875L82.87267857142858,329.875L89.2475,329.875L95.62232142857142,329.875L101.99714285714286,329.875L108.37196428571428,329.875L114.7467857142857,329.875L121.12160714285713,329.875L127.49642857142857,329.875L133.87125,329.875L140.24607142857144,329.875L146.62089285714285,329.875L152.99571428571429,329.875L159.37053571428572,329.875L165.74535714285716,329.875L172.1201785714286,329.875L178.495,329.875L184.86982142857144,329.875L191.24464285714285,329.875L197.6194642857143,329.875L203.99428571428572,329.875L210.36910714285713,329.875L216.74392857142857,329.875L223.11875,329.875L229.4935714285714,329.875L235.86839285714288,329.875L242.24321428571426,329.875L248.61803571428572,329.875L254.99285714285713,329.875L261.3676785714286,329.875L267.7425,329.875L274.1173214285715,329.875L280.4921428571429,329.875L286.8669642857143,329.875L293.2417857142857,329.875L299.6166071428571,329.875L305.99142857142857,329.875L312.36625,329.875L318.74107142857144,329.875L325.11589285714285,329.875L331.4907142857143,329.875L337.8655357142857,329.875L344.2403571428572,329.875L350.6151785714286,329.875L356.99,329.875L363.3648214285714,329.875L369.7396428571429,329.875L376.1144642857143,329.875L382.4892857142857,329.875L388.86410714285716,329.875L395.2389285714286,329.875L401.61375000000004,329.875L407.98857142857145,329.875L414.36339285714286,329.875L420.73821428571426,329.875L427.11303571428573,329.875L433.48785714285714,329.875L439.8626785714286,329.875L446.2375,329.875L452.6123214285714,329.875L458.9871428571428,329.875L465.36196428571435,329.875L471.73678571428576,329.875L478.11160714285717,329.875L484.4864285714285,329.875L490.86125000000004,329.875L497.23607142857145,329.875L503.61089285714286,329.875L509.98571428571427,329.875L516.3605357142858,329.875L522.7353571428572,329.875L529.1101785714286,329.875L535.485,329.875L541.8598214285714,329.875L548.234642857143,329.875L554.6094642857144,329.875L560.9842857142858,329.875L567.3591071428572,329.875L573.7339285714286,329.875L580.10875,329.875L586.4835714285714,329.875L592.8583928571428,329.875L599.2332142857142,329.875L605.6080357142857,329.875L611.9828571428571,329.875L618.3576785714286,329.875L624.7325,329.875L631.1073214285715,329.875L637.4821428571429,329.875L643.8569642857143,329.875L650.2317857142857,329.875L656.6066071428572,329.875L662.9814285714286,329.875L669.35625,329.875L675.7310714285715,329.875L682.1058928571429,329.875L688.4807142857144,329.875L694.8555357142858,329.875L701.2303571428572,329.875L707.6051785714285,329.875L713.98,329.875L720.3548214285714,329.875L726.7296428571428,329.875L733.1044642857142,329.875L739.4792857142858,329.875L745.8541071428572,329.875L752.2289285714286,329.875L758.60375,329.875L764.9785714285714,329.875L771.3533928571429,329.875L777.7282142857143,329.875L784.1030357142857,329.875L790.4778571428571,329.875L796.8526785714287,329.875L803.2275000000001,329.875L809.6023214285715,329.875L815.9771428571429,329.875L822.3519642857143,329.875L828.7267857142857,329.875" style="fill: none;" fill="none"></path></g><g><path stroke="rgb(187, 187, 187)" stroke-width="2px" d="M63.74821428571428,329.875L70.12303571428572,329.875L76.49785714285714,329.875L82.87267857142858,329.875L89.2475,329.875L95.62232142857142,329.875L101.99714285714286,329.875L108.37196428571428,329.875L114.7467857142857,329.875L121.12160714285713,329.875L127.49642857142857,329.875L133.87125,329.875L140.24607142857144,329.875L146.62089285714285,329.875L152.99571428571429,329.875L159.37053571428572,329.875L165.74535714285716,329.875L172.1201785714286,329.875L178.495,329.875L184.86982142857144,329.875L191.24464285714285,329.875L197.6194642857143,329.875L203.99428571428572,329.875L210.36910714285713,329.875L216.74392857142857,329.875L223.11875,329.875L229.4935714285714,329.875L235.86839285714288,329.875L242.24321428571426,329.875L248.61803571428572,329.875L254.99285714285713,329.875L261.3676785714286,329.875L267.7425,329.875L274.1173214285715,329.875L280.4921428571429,329.875L286.8669642857143,329.875L293.2417857142857,329.875L299.6166071428571,329.875L305.99142857142857,329.875L312.36625,329.875L318.74107142857144,329.875L325.11589285714285,329.875L331.4907142857143,329.875L337.8655357142857,329.875L344.2403571428572,329.875L350.6151785714286,329.875L356.99,329.875L363.3648214285714,329.875L369.7396428571429,329.875L376.1144642857143,329.875L382.4892857142857,329.875L388.86410714285716,329.875L395.2389285714286,329.875L401.61375000000004,329.875L407.98857142857145,329.875L414.36339285714286,329.875L420.73821428571426,329.875L427.11303571428573,329.875L433.48785714285714,329.875L439.8626785714286,329.875L446.2375,329.875L452.6123214285714,329.875L458.9871428571428,329.875L465.36196428571435,329.875L471.73678571428576,329.875L478.11160714285717,329.875L484.4864285714285,329.875L490.86125000000004,329.875L497.23607142857145,329.875L503.61089285714286,329.875L509.98571428571427,329.875L516.3605357142858,329.875L522.7353571428572,329.875L529.1101785714286,329.875L535.485,329.875L541.8598214285714,329.875L548.234642857143,329.875L554.6094642857144,329.875L560.9842857142858,329.875L567.3591071428572,329.875L573.7339285714286,329.875L580.10875,329.875L586.4835714285714,329.875L592.8583928571428,329.875L599.2332142857142,329.875L605.6080357142857,329.875L611.9828571428571,329.875L618.3576785714286,329.875L624.7325,329.875L631.1073214285715,329.875L637.4821428571429,329.875L643.8569642857143,329.875L650.2317857142857,329.875L656.6066071428572,329.875L662.9814285714286,329.875L669.35625,329.875L675.7310714285715,329.875L682.1058928571429,329.875L688.4807142857144,329.875L694.8555357142858,329.875L701.2303571428572,329.875L707.6051785714285,329.875L713.98,329.875L720.3548214285714,329.875L726.7296428571428,329.875L733.1044642857142,329.875L739.4792857142858,329.875L745.8541071428572,329.875L752.2289285714286,329.875L758.60375,329.875L764.9785714285714,329.875L771.3533928571429,329.875L777.7282142857143,329.875L784.1030357142857,329.875L790.4778571428571,329.875L796.8526785714287,329.875L803.2275000000001,329.875L809.6023214285715,329.875L815.9771428571429,329.875L822.3519642857143,329.875L828.7267857142857,329.875" style="fill: none;" fill="none"></path></g><g><path stroke="rgb(0, 153, 136)" stroke-width="2px" d="M63.74821428571428,329.875L70.12303571428572,329.875L76.49785714285714,329.875L82.87267857142858,329.875L89.2475,329.875L95.62232142857142,329.875L101.99714285714286,329.875L108.37196428571428,329.875L114.7467857142857,329.875L121.12160714285713,329.875L127.49642857142857,329.875L133.87125,329.875L140.24607142857144,329.875L146.62089285714285,329.875L152.99571428571429,329.875L159.37053571428572,329.875L165.74535714285716,329.875L172.1201785714286,329.875L178.495,329.875L184.86982142857144,329.875L191.24464285714285,329.875L197.6194642857143,329.875L203.99428571428572,329.875L210.36910714285713,329.875L216.74392857142857,329.875L223.11875,329.875L229.4935714285714,329.875L235.86839285714288,329.875L242.24321428571426,329.875L248.61803571428572,329.875L254.99285714285713,329.875L261.3676785714286,329.875L267.7425,329.875L274.1173214285715,329.875L280.4921428571429,329.875L286.8669642857143,329.875L293.2417857142857,329.875L299.6166071428571,329.875L305.99142857142857,329.875L312.36625,329.875L318.74107142857144,329.875L325.11589285714285,329.875L331.4907142857143,329.875L337.8655357142857,329.875L344.2403571428572,329.875L350.6151785714286,329.875L356.99,329.875L363.3648214285714,329.875L369.7396428571429,329.875L376.1144642857143,329.875L382.4892857142857,329.875L388.86410714285716,329.875L395.2389285714286,329.875L401.61375000000004,329.875L407.98857142857145,329.875L414.36339285714286,329.875L420.73821428571426,329.875L427.11303571428573,329.875L433.48785714285714,329.875L439.8626785714286,329.875L446.2375,329.875L452.6123214285714,329.875L458.9871428571428,329.875L465.36196428571435,329.875L471.73678571428576,329.875L478.11160714285717,329.875L484.4864285714285,329.875L490.86125000000004,329.875L497.23607142857145,329.875L503.61089285714286,329.875L509.98571428571427,329.875L516.3605357142858,329.875L522.7353571428572,329.875L529.1101785714286,329.875L535.485,329.875L541.8598214285714,329.875L548.234642857143,329.875L554.6094642857144,329.875L560.9842857142858,329.875L567.3591071428572,329.875L573.7339285714286,329.875L580.10875,329.875L586.4835714285714,329.875L592.8583928571428,329.875L599.2332142857142,329.875L605.6080357142857,329.875L611.9828571428571,329.875L618.3576785714286,329.875L624.7325,329.875L631.1073214285715,329.875L637.4821428571429,329.875L643.8569642857143,329.875L650.2317857142857,329.875L656.6066071428572,329.875L662.9814285714286,329.875L669.35625,329.875L675.7310714285715,329.875L682.1058928571429,329.875L688.4807142857144,329.875L694.8555357142858,329.875L701.2303571428572,329.875L707.6051785714285,329.875L713.98,329.875L720.3548214285714,329.875L726.7296428571428,329.875L733.1044642857142,329.875L739.4792857142858,329.875L745.8541071428572,329.875L752.2289285714286,329.875L758.60375,329.875L764.9785714285714,329.875L771.3533928571429,329.875L777.7282142857143,329.875L784.1030357142857,329.875L790.4778571428571,329.875L796.8526785714287,329.875L803.2275000000001,329.875L809.6023214285715,329.875L815.9771428571429,329.875L822.3519642857143,329.875L828.7267857142857,329.875" style="fill: none;" fill="none"></path></g><g><path stroke="rgb(238, 51, 119)" stroke-width="2px" d="M63.74821428571428,329.875L70.12303571428572,329.875L76.49785714285714,329.875L82.87267857142858,329.875L89.2475,329.875L95.62232142857142,329.875L101.99714285714286,329.875L108.37196428571428,329.875L114.7467857142857,329.875L121.12160714285713,329.875L127.49642857142857,329.875L133.87125,329.875L140.24607142857144,329.875L146.62089285714285,329.875L152.99571428571429,329.875L159.37053571428572,329.875L165.74535714285716,329.875L172.1201785714286,329.875L178.495,329.875L184.86982142857144,329.875L191.24464285714285,329.875L197.6194642857143,329.875L203.99428571428572,329.875L210.36910714285713,329.875L216.74392857142857,329.875L223.11875,329.875L229.4935714285714,329.875L235.86839285714288,329.875L242.24321428571426,329.875L248.61803571428572,329.875L254.99285714285713,329.875L261.3676785714286,329.875L267.7425,329.875L274.1173214285715,329.875L280.4921428571429,329.875L286.8669642857143,329.875L293.2417857142857,329.875L299.6166071428571,329.875L305.99142857142857,329.875L312.36625,329.875L318.74107142857144,329.875L325.11589285714285,329.875L331.4907142857143,329.875L337.8655357142857,329.875L344.2403571428572,329.875L350.6151785714286,329.875L356.99,329.875L363.3648214285714,329.875L369.7396428571429,329.875L376.1144642857143,329.875L382.4892857142857,329.875L388.86410714285716,329.875L395.2389285714286,329.875L401.61375000000004,329.875L407.98857142857145,329.875L414.36339285714286,329.875L420.73821428571426,329.875L427.11303571428573,329.875L433.48785714285714,329.875L439.8626785714286,329.875L446.2375,329.875L452.6123214285714,329.875L458.9871428571428,329.875L465.36196428571435,329.875L471.73678571428576,329.875L478.11160714285717,329.875L484.4864285714285,329.875L490.86125000000004,329.875L497.23607142857145,329.875L503.61089285714286,329.875L509.98571428571427,329.875L516.3605357142858,329.875L522.7353571428572,329.875L529.1101785714286,329.875L535.485,329.875L541.8598214285714,329.875L548.234642857143,329.875L554.6094642857144,329.875L560.9842857142858,329.875L567.3591071428572,329.875L573.7339285714286,329.875L580.10875,329.875L586.4835714285714,329.875L592.8583928571428,329.875L599.2332142857142,329.875L605.6080357142857,329.875L611.9828571428571,329.875L618.3576785714286,329.875L624.7325,329.875L631.1073214285715,329.875L637.4821428571429,329.875L643.8569642857143,329.875L650.2317857142857,329.875L656.6066071428572,329.875L662.9814285714286,329.875L669.35625,329.875L675.7310714285715,329.875L682.1058928571429,329.875L688.4807142857144,329.875L694.8555357142858,329.875L701.2303571428572,329.875L707.6051785714285,329.875L713.98,329.875L720.3548214285714,329.875L726.7296428571428,329.875L733.1044642857142,329.875L739.4792857142858,329.875L745.8541071428572,329.875L752.2289285714286,329.875L758.60375,329.875L764.9785714285714,329.875L771.3533928571429,329.875L777.7282142857143,329.875L784.1030357142857,329.875L790.4778571428571,329.875L796.8526785714287,329.875L803.2275000000001,329.875L809.6023214285715,329.875L815.9771428571429,329.875L822.3519642857143,329.875L828.7267857142857,329.875" style="fill: none;" fill="none"></path></g><g><path stroke="rgb(51, 187, 238)" stroke-width="2px" d="M63.74821428571428,329.875L70.12303571428572,329.875L76.49785714285714,329.875L82.87267857142858,329.875L89.2475,329.875L95.62232142857142,329.875L101.99714285714286,329.875L108.37196428571428,329.875L114.7467857142857,329.875L121.12160714285713,329.875L127.49642857142857,329.875L133.87125,329.875L140.24607142857144,329.875L146.62089285714285,329.875L152.99571428571429,329.875L159.37053571428572,329.875L165.74535714285716,329.875L172.1201785714286,329.875L178.495,329.875L184.86982142857144,329.875L191.24464285714285,329.875L197.6194642857143,329.875L203.99428571428572,329.875L210.36910714285713,329.875L216.74392857142857,329.875L223.11875,329.875L229.4935714285714,329.875L235.86839285714288,329.875L242.24321428571426,329.875L248.61803571428572,329.875L254.99285714285713,329.875L261.3676785714286,329.875L267.7425,329.875L274.1173214285715,329.875L280.4921428571429,329.875L286.8669642857143,329.875L293.2417857142857,329.875L299.6166071428571,329.875L305.99142857142857,329.875L312.36625,329.875L318.74107142857144,329.875L325.11589285714285,329.875L331.4907142857143,329.875L337.8655357142857,329.875L344.2403571428572,329.875L350.6151785714286,329.875L356.99,329.875L363.3648214285714,329.875L369.7396428571429,329.875L376.1144642857143,329.875L382.4892857142857,329.875L388.86410714285716,329.875L395.2389285714286,329.875L401.61375000000004,329.875L407.98857142857145,329.875L414.36339285714286,329.875L420.73821428571426,329.875L427.11303571428573,329.875L433.48785714285714,329.875L439.8626785714286,329.875L446.2375,329.875L452.6123214285714,329.875L458.9871428571428,329.875L465.36196428571435,329.875L471.73678571428576,329.875L478.11160714285717,329.875L484.4864285714285,329.875L490.86125000000004,329.875L497.23607142857145,329.875L503.61089285714286,329.875L509.98571428571427,329.875L516.3605357142858,329.875L522.7353571428572,329.875L529.1101785714286,329.875L535.485,329.875L541.8598214285714,329.875L548.234642857143,329.875L554.6094642857144,329.875L560.9842857142858,329.875L567.3591071428572,329.875L573.7339285714286,329.875L580.10875,329.875L586.4835714285714,329.875L592.8583928571428,329.875L599.2332142857142,329.875L605.6080357142857,329.875L611.9828571428571,329.875L618.3576785714286,329.875L624.7325,329.875L631.1073214285715,329.875L637.4821428571429,329.875L643.8569642857143,329.875L650.2317857142857,329.875L656.6066071428572,329.875L662.9814285714286,329.875L669.35625,329.875L675.7310714285715,329.875L682.1058928571429,329.875L688.4807142857144,329.875L694.8555357142858,329.875L701.2303571428572,329.875L707.6051785714285,329.875L713.98,329.875L720.3548214285714,329.875L726.7296428571428,329.875L733.1044642857142,329.875L739.4792857142858,329.875L745.8541071428572,329.875L752.2289285714286,329.875L758.60375,329.875L764.9785714285714,329.875L771.3533928571429,329.875L777.7282142857143,329.875L784.1030357142857,329.875L790.4778571428571,329.875L796.8526785714287,329.875L803.2275000000001,329.875L809.6023214285715,329.875L815.9771428571429,329.875L822.3519642857143,329.875L828.7267857142857,329.875" style="fill: none;" fill="none"></path></g><g><path stroke="rgb(204, 51, 17)" stroke-width="2px" d="M63.74821428571428,329.875L70.12303571428572,329.875L76.49785714285714,329.875L82.87267857142858,329.875L89.2475,329.875L95.62232142857142,329.875L101.99714285714286,329.875L108.37196428571428,329.875L114.7467857142857,329.875L121.12160714285713,329.875L127.49642857142857,329.875L133.87125,329.875L140.24607142857144,329.875L146.62089285714285,329.875L152.99571428571429,329.875L159.37053571428572,329.875L165.74535714285716,329.875L172.1201785714286,329.875L178.495,329.875L184.86982142857144,329.875L191.24464285714285,329.875L197.6194642857143,329.875L203.99428571428572,329.875L210.36910714285713,329.875L216.74392857142857,329.875L223.11875,329.875L229.4935714285714,329.875L235.86839285714288,329.875L242.24321428571426,329.875L248.61803571428572,329.875L254.99285714285713,329.875L261.3676785714286,329.875L267.7425,329.875L274.1173214285715,329.875L280.4921428571429,329.875L286.8669642857143,329.875L293.2417857142857,329.875L299.6166071428571,329.875L305.99142857142857,329.875L312.36625,329.875L318.74107142857144,329.875L325.11589285714285,329.875L331.4907142857143,329.875L337.8655357142857,329.875L344.2403571428572,329.875L350.6151785714286,329.875L356.99,329.875L363.3648214285714,329.875L369.7396428571429,329.875L376.1144642857143,329.875L382.4892857142857,329.875L388.86410714285716,329.875L395.2389285714286,329.875L401.61375000000004,329.875L407.98857142857145,329.875L414.36339285714286,329.875L420.73821428571426,329.875L427.11303571428573,329.875L433.48785714285714,329.875L439.8626785714286,329.875L446.2375,329.875L452.6123214285714,329.875L458.9871428571428,329.875L465.36196428571435,329.875L471.73678571428576,329.875L478.11160714285717,329.875L484.4864285714285,329.875L490.86125000000004,329.875L497.23607142857145,329.875L503.61089285714286,329.875L509.98571428571427,329.875L516.3605357142858,329.875L522.7353571428572,329.875L529.1101785714286,329.875L535.485,329.875L541.8598214285714,329.875L548.234642857143,329.875L554.6094642857144,329.875L560.9842857142858,329.875L567.3591071428572,329.875L573.7339285714286,329.875L580.10875,329.875L586.4835714285714,329.875L592.8583928571428,329.875L599.2332142857142,329.875L605.6080357142857,329.875L611.9828571428571,329.875L618.3576785714286,329.875L624.7325,329.875L631.1073214285715,329.875L637.4821428571429,329.875L643.8569642857143,329.875L650.2317857142857,329.875L656.6066071428572,329.875L662.9814285714286,329.875L669.35625,329.875L675.7310714285715,329.875L682.1058928571429,329.875L688.4807142857144,329.875L694.8555357142858,329.875L701.2303571428572,329.875L707.6051785714285,329.875L713.98,329.875L720.3548214285714,329.875L726.7296428571428,329.875L733.1044642857142,329.875L739.4792857142858,329.875L745.8541071428572,329.875L752.2289285714286,329.875L758.60375,329.875L764.9785714285714,329.875L771.3533928571429,329.875L777.7282142857143,329.875L784.1030357142857,329.875L790.4778571428571,329.875L796.8526785714287,329.875L803.2275000000001,329.875L809.6023214285715,329.875L815.9771428571429,329.875L822.3519642857143,329.875L828.7267857142857,329.875" style="fill: none;" fill="none"></path></g></g></g></g></g></g><g transform="translate(53, 377)" clip-path="url(#clip_1)"><clipPath id="clip_1"><rect width="892" height="23"></rect></clipPath><g><g><line x1="0" y1="0" x2="0" y2="5" style="visibility: inherit;" fill="rgb(0, 0, 0)" stroke="rgb(204, 204, 204)" stroke-width="1px"></line><line x1="63.74821428571428" y1="0" x2="63.74821428571428" y2="5" style="visibility: inherit;" fill="rgb(0, 0, 0)" stroke="rgb(204, 204, 204)" stroke-width="1px"></line><line x1="127.49642857142857" y1="0" x2="127.49642857142857" y2="5" style="visibility: inherit;" fill="rgb(0, 0, 0)" stroke="rgb(204, 204, 204)" stroke-width="1px"></line><line x1="191.24464285714285" y1="0" x2="191.24464285714285" y2="5" style="visibility: inherit;" fill="rgb(0, 0, 0)" stroke="rgb(204, 204, 204)" stroke-width="1px"></line><line x1="254.99285714285713" y1="0" x2="254.99285714285713" y2="5" style="visibility: inherit;" fill="rgb(0, 0, 0)" stroke="rgb(204, 204, 204)" stroke-width="1px"></line><line x1="318.74107142857144" y1="0" x2="318.74107142857144" y2="5" style="visibility: inherit;" fill="rgb(0, 0, 0)" stroke="rgb(204, 204, 204)" stroke-width="1px"></line><line x1="382.4892857142857" y1="0" x2="382.4892857142857" y2="5" style="visibility: inherit;" fill="rgb(0, 0, 0)" stroke="rgb(204, 204, 204)" stroke-width="1px"></line><line x1="446.2375" y1="0" x2="446.2375" y2="5" style="visibility: inherit;" fill="rgb(0, 0, 0)" stroke="rgb(204, 204, 204)" stroke-width="1px"></line><line x1="509.98571428571427" y1="0" x2="509.98571428571427" y2="5" style="visibility: inherit;" fill="rgb(0, 0, 0)" stroke="rgb(204, 204, 204)" stroke-width="1px"></line><line x1="573.7339285714286" y1="0" x2="573.7339285714286" y2="5" style="visibility: inherit;" fill="rgb(0, 0, 0)" stroke="rgb(204, 204, 204)" stroke-width="1px"></line><line x1="637.4821428571429" y1="0" x2="637.4821428571429" y2="5" style="visibility: inherit;" fill="rgb(0, 0, 0)" stroke="rgb(204, 204, 204)" stroke-width="1px"></line><line x1="701.2303571428572" y1="0" x2="701.2303571428572" y2="5" style="visibility: inherit;" fill="rgb(0, 0, 0)" stroke="rgb(204, 204, 204)" stroke-width="1px"></line><line x1="764.9785714285714" y1="0" x2="764.9785714285714" y2="5" style="visibility: inherit;" fill="rgb(0, 0, 0)" stroke="rgb(204, 204, 204)" stroke-width="1px"></line><line x1="828.7267857142857" y1="0" x2="828.7267857142857" y2="5" style="visibility: inherit;" fill="rgb(0, 0, 0)" stroke="rgb(204, 204, 204)" stroke-width="1px"></line><line x1="892.475" y1="0" x2="892.475" y2="5" style="visibility: inherit;" fill="rgb(0, 0, 0)" stroke="rgb(204, 204, 204)" stroke-width="1px"></line></g><g transform="translate(0, 8)"><text x="0" y="0" dx="0em" dy="0.95em" style="text-anchor: middle; visibility: hidden; font-family: &quot;Helvetica Neue&quot;, sans-serif; font-size: 12px; font-weight: 200;" fill="rgb(50, 49, 63)" stroke="none" stroke-width="1px">-10</text><text x="63.74821428571428" y="0" dx="0em" dy="0.95em" style="text-anchor: middle; visibility: inherit; font-family: &quot;Helvetica Neue&quot;, sans-serif; font-size: 12px; font-weight: 200;" fill="rgb(50, 49, 63)" stroke="none" stroke-width="1px">0</text><text x="127.49642857142857" y="0" dx="0em" dy="0.95em" style="text-anchor: middle; visibility: inherit; font-family: &quot;Helvetica Neue&quot;, sans-serif; font-size: 12px; font-weight: 200;" fill="rgb(50, 49, 63)" stroke="none" stroke-width="1px">10</text><text x="191.24464285714285" y="0" dx="0em" dy="0.95em" style="text-anchor: middle; visibility: inherit; font-family: &quot;Helvetica Neue&quot;, sans-serif; font-size: 12px; font-weight: 200;" fill="rgb(50, 49, 63)" stroke="none" stroke-width="1px">20</text><text x="254.99285714285713" y="0" dx="0em" dy="0.95em" style="text-anchor: middle; visibility: inherit; font-family: &quot;Helvetica Neue&quot;, sans-serif; font-size: 12px; font-weight: 200;" fill="rgb(50, 49, 63)" stroke="none" stroke-width="1px">30</text><text x="318.74107142857144" y="0" dx="0em" dy="0.95em" style="text-anchor: middle; visibility: inherit; font-family: &quot;Helvetica Neue&quot;, sans-serif; font-size: 12px; font-weight: 200;" fill="rgb(50, 49, 63)" stroke="none" stroke-width="1px">40</text><text x="382.4892857142857" y="0" dx="0em" dy="0.95em" style="text-anchor: middle; visibility: inherit; font-family: &quot;Helvetica Neue&quot;, sans-serif; font-size: 12px; font-weight: 200;" fill="rgb(50, 49, 63)" stroke="none" stroke-width="1px">50</text><text x="446.2375" y="0" dx="0em" dy="0.95em" style="text-anchor: middle; visibility: inherit; font-family: &quot;Helvetica Neue&quot;, sans-serif; font-size: 12px; font-weight: 200;" fill="rgb(50, 49, 63)" stroke="none" stroke-width="1px">60</text><text x="509.98571428571427" y="0" dx="0em" dy="0.95em" style="text-anchor: middle; visibility: inherit; font-family: &quot;Helvetica Neue&quot;, sans-serif; font-size: 12px; font-weight: 200;" fill="rgb(50, 49, 63)" stroke="none" stroke-width="1px">70</text><text x="573.7339285714286" y="0" dx="0em" dy="0.95em" style="text-anchor: middle; visibility: inherit; font-family: &quot;Helvetica Neue&quot;, sans-serif; font-size: 12px; font-weight: 200;" fill="rgb(50, 49, 63)" stroke="none" stroke-width="1px">80</text><text x="637.4821428571429" y="0" dx="0em" dy="0.95em" style="text-anchor: middle; visibility: inherit; font-family: &quot;Helvetica Neue&quot;, sans-serif; font-size: 12px; font-weight: 200;" fill="rgb(50, 49, 63)" stroke="none" stroke-width="1px">90</text><text x="701.2303571428572" y="0" dx="0em" dy="0.95em" style="text-anchor: middle; visibility: inherit; font-family: &quot;Helvetica Neue&quot;, sans-serif; font-size: 12px; font-weight: 200;" fill="rgb(50, 49, 63)" stroke="none" stroke-width="1px">100</text><text x="764.9785714285714" y="0" dx="0em" dy="0.95em" style="text-anchor: middle; visibility: inherit; font-family: &quot;Helvetica Neue&quot;, sans-serif; font-size: 12px; font-weight: 200;" fill="rgb(50, 49, 63)" stroke="none" stroke-width="1px">110</text><text x="828.7267857142857" y="0" dx="0em" dy="0.95em" style="text-anchor: middle; visibility: inherit; font-family: &quot;Helvetica Neue&quot;, sans-serif; font-size: 12px; font-weight: 200;" fill="rgb(50, 49, 63)" stroke="none" stroke-width="1px">120</text><text x="892.475" y="0" dx="0em" dy="0.95em" style="text-anchor: middle; visibility: hidden; font-family: &quot;Helvetica Neue&quot;, sans-serif; font-size: 12px; font-weight: 200;" fill="rgb(50, 49, 63)" stroke="none" stroke-width="1px">130</text></g><line x1="0" y1="0" x2="892.475" y2="0" fill="rgb(0, 0, 0)" stroke="rgb(204, 204, 204)" stroke-width="1px"></line></g></g></g></g></svg>